# xmcd CD database file generated by Grip 3.3.1
# 
# Track frame offsets:
#       150
#       23557
#       49001
#       69062
#       94071
#       117713
#       132510
#       149755
#       183789
#       220700
#       238727
#       272146
#       294888
#       320919
# 
# Disc length: 4598 seconds
# 
# Revision: 2
# Processed by: cddbd v1.5.2PL0 Copyright (c) Steve Scherf et al.
# Submitted via: Grip 3.3.1
# 
DISCID=d411f40e
DTITLE=Michel Portal and Richard Galliano - Concerts
DYEAR=2004
DGENRE=Jazz
TTITLE0=Tango Pour Claude
TTITLE1=Taraf
TTITLE2=Giselle
TTITLE3=Little Tango
TTITLE4=Oblivion
TTITLE5=Chorinho Pra Ele
TTITLE6=Yvan Ivanovitch Kossiakof
TTITLE7=Viaggio
TTITLE8=Libertango
TTITLE9=Indifférence
TTITLE10=Mozambique
TTITLE11=Face to Face
TTITLE12=J.F.
TTITLE13=Beija Flor
EXTD=YEAR: 2004
EXTT0=
EXTT1=
EXTT2=
EXTT3=
EXTT4=
EXTT5=
EXTT6=
EXTT7=
EXTT8=
EXTT9=
EXTT10=
EXTT11=
EXTT12=
EXTT13=
PLAYORDER=
